<svg width="215" height="215" viewBox="0 0 215 215" fill="none" xmlns="http://www.w3.org/2000/svg">
<path d="M107.596 213.193C165.915 213.193 213.192 165.915 213.192 107.596C213.192 49.277 165.915 2 107.596 2C49.2771 2 2 49.277 2 107.596C2 165.915 49.2771 213.193 107.596 213.193Z" fill="white" stroke="url(#paint0_linear_15_5)" stroke-width="3.26929" stroke-linejoin="bevel" stroke-dasharray="26.15 6.54 3.27 6.54"/>
<path d="M68.4828 81.1924H52.5275L68.4828 97.1477V81.1924ZM68.4828 70.5247V54.5694L52.5275 70.5247H68.4828ZM142.963 70.5247H158.918L142.963 54.5694V70.5247ZM142.963 81.1924V97.1477L158.918 81.1924H142.963ZM111.736 81.1924V65.2371L95.7803 81.1924H111.736ZM111.736 169.832V185.787L127.691 169.832H111.736ZM99.7101 169.832H83.7548L99.7101 185.787V169.832ZM99.7101 81.1924H115.665L99.7101 65.2371V81.1924ZM84.4381 81.1924V70.5247H52.5275V81.1924H84.4381ZM68.4828 86.48H142.963V54.5694H68.4828V86.48ZM127.008 70.5247V81.1924H158.918V70.5247H127.008ZM142.963 65.2371H111.736V97.1477H142.963V65.2371ZM95.7803 81.1924V169.832H127.691V81.1924H95.7803ZM111.736 153.876H99.7101V185.787H111.736V153.876ZM115.665 169.832V81.1924H83.7548V169.832H115.665ZM99.7101 65.2371H68.4828V97.1477H99.7101V65.2371Z" fill="#00E7FA"/>
<path d="M108.007 45.0531C114.761 45.0531 120.237 39.5779 120.237 32.824C120.237 26.0701 114.761 20.595 108.007 20.595C101.254 20.595 95.7784 26.0701 95.7784 32.824C95.7784 39.5779 101.254 45.0531 108.007 45.0531Z" stroke="#00EAFC" stroke-width="2.51339" stroke-linejoin="bevel"/>
<defs>
<linearGradient id="paint0_linear_15_5" x1="0.364889" y1="107.597" x2="214.827" y2="107.597" gradientUnits="userSpaceOnUse">
<stop stop-color="#00EAFC"/>
<stop offset="1" stop-color="#00EAFC" stop-opacity="0"/>
</linearGradient>
</defs>
</svg>
